<?xml version="1.0" ?><!DOCTYPE svg  PUBLIC '-//W3C//DTD SVG 1.1//EN'  'http://www.w3.org/Graphics/SVG/1.1/DTD/svg11.dtd'><svg enable-background="new 0 0 64 64" height="16px" version="1.1" viewBox="0 0 64 64" width="16px" xml:space="preserve" xmlns="http://www.w3.org/2000/svg" xmlns:xlink="http://www.w3.org/1999/xlink"><g id="X-ray_x2C__check_mark"><g id="X-ray"><g id="XMLID_160_"><g id="XMLID_163_"><g id="XMLID_164_"><g id="XMLID_165_"><polygon fill="#37474F" id="XMLID_166_" points="9,56 7,56 7,54 8,54 8,55 9,55       "/></g></g><g id="XMLID_167_"><g id="XMLID_168_"><polygon fill="#37474F" id="XMLID_169_" points="8,10 7,10 7,8 9,8 9,9 8,9       "/></g></g><g id="XMLID_170_"><g id="XMLID_171_"><polygon fill="#37474F" id="XMLID_172_" points="53,10 52,10 52,9 51,9 51,8 53,8       "/></g></g></g><g id="XMLID_176_"><g id="XMLID_180_"><g id="XMLID_181_"><g id="XMLID_182_"><g id="XMLID_183_"><path d="M47.143,31.553c-0.208,0.318-0.443,0.63-0.737,0.925c-0.002,0.003-0.005,0.004-0.008,0.007          c0.147,0.443,0.084,0.938-0.027,1.327c-0.497,1.739-2.545,3.932-5.105,4.59c-2.259,0.584-5.933-2.542-8.801-5.082          c-0.173-0.082-0.289-0.123-0.378-0.148c0.056,0.36-0.003,0.74-0.177,1.056c0.211,0.186,0.423,0.371,0.633,0.557          c2.786,2.467,5.435,4.813,7.996,4.813c0.334,0,0.668-0.041,1-0.125c3.058-0.787,5.319-3.347,5.895-5.357          C47.719,33.119,47.6,32.233,47.143,31.553z" fill="#37474F"/></g></g></g><g id="XMLID_185_"><g id="XMLID_186_"><g id="XMLID_187_"><path d="M45.976,27.005c-0.08,0.097-0.152,0.196-0.242,0.29c-0.163,0.167-0.357,0.326-0.554,0.483          c1.084,1.308,0.276,2.519-0.343,3.143c-2.404,2.422-8.424,3.368-12.8-0.33c0.022,0.404-0.092,0.816-0.351,1.121          c2.219,1.744,4.742,2.483,7.097,2.483c2.81,0,5.366-1.013,6.838-2.497C47.1,30.209,47.215,28.436,45.976,27.005z" fill="#37474F"/></g></g></g><g id="XMLID_189_"><g id="XMLID_190_"><g id="XMLID_191_"><path d="M45.293,23.535c-0.218-0.298-0.496-0.559-0.798-0.804c-0.115,0.147-0.24,0.291-0.384,0.428          c-0.123,0.119-0.281,0.224-0.424,0.333c0.275,0.21,0.523,0.436,0.715,0.695c0.232,0.318,0.46,0.827-0.261,1.576          c-1.985,2.063-8.313,3.308-12.123,1.319c0.096,0.379,0.059,0.793-0.111,1.143c1.425,0.652,3.076,0.957,4.749,0.957          c3.409,0,6.838-1.154,8.28-2.653C45.858,25.574,45.987,24.482,45.293,23.535z" fill="#37474F"/></g></g></g><g id="XMLID_193_"><g id="XMLID_194_"><g id="XMLID_195_"><path d="M31.98,22.877c1.699,1.354,8.732,0.483,10.601-1.311          c0.557-0.533,0.407-0.913,0.164-1.245c-0.294-0.402-0.675-0.738-1.109-1.026c0.285-0.265,0.503-0.557,0.663-0.87          c0.52,0.347,0.979,0.755,1.337,1.244c0.66,0.901,0.554,1.883-0.289,2.694c-1.457,1.398-5.111,2.261-8.113,2.261          c-1.692,0-3.178-0.274-3.941-0.882c-0.238-0.19-0.277-0.538-0.087-0.776S31.742,22.687,31.98,22.877z" fill="#37474F" id="XMLID_196_"/></g></g></g><g id="XMLID_197_"><g id="XMLID_198_"><g id="XMLID_199_"><path d="M40.978,15.855c-0.539-0.684-1.254-1.256-2.049-1.721c-0.016,0.396-0.104,0.772-0.264,1.123          c0.554,0.359,1.053,0.783,1.445,1.282c0.477,0.604,0.259,0.879,0.154,1.012c-1.188,1.499-7.368,1.813-8.26,1.48          c-0.131-0.118-0.313-0.162-0.483-0.126c0.085,0.35,0.059,0.728-0.081,1.057c0.426,0.226,1.209,0.3,2.036,0.3          c0.677,0,1.376-0.048,1.92-0.098c1.934-0.177,5.285-0.716,5.985-2.343C41.567,17.391,41.646,16.702,40.978,15.855z" fill="#37474F"/></g></g></g><g id="XMLID_201_"><g id="XMLID_202_"><g id="XMLID_203_"><path d="M37.683,13.185c-0.347-0.994-1.504-1.979-2.815-2.398c-1.284-0.411-2.543-0.241-3.551,0.473          c-0.25,0.176-0.308,0.521-0.131,0.77c0.176,0.248,0.521,0.307,0.77,0.13c0.917-0.651,1.906-0.533,2.576-0.321          c1.105,0.353,1.911,1.145,2.107,1.71c0.182,0.518,0.084,0.885-0.313,1.192c-1.146,0.879-3.874,0.746-4.287,0.466          c-0.169-0.253-0.482-0.292-0.736-0.122c-0.001,0.001-0.002,0.002-0.003,0.003c0.287,0.307,0.417,0.736,0.395,1.159          c0.45,0.185,1.105,0.28,1.819,0.28c1.028,0,2.171-0.194,2.96-0.587C37.648,15.354,38.089,14.351,37.683,13.185z" fill="#37474F"/></g></g></g></g><g id="XMLID_205_"><g id="XMLID_206_"><g id="XMLID_207_"><path d="M28.308,36.329c-0.543,0.479-1.087,0.976-1.632,1.481c-2.721,2.522-5.539,5.125-8.556,4.455         c-2.364-0.529-4.088-2.731-4.509-4.535c-0.037-0.156-0.071-0.346-0.091-0.552c-0.385-0.473-0.692-0.962-0.953-1.451         c-0.206,0.661-0.226,1.428-0.032,2.254c0.511,2.185,2.51,4.727,5.343,5.361c0.426,0.095,0.843,0.14,1.252,0.14         c1.969,0,3.773-1.03,5.5-2.4c-0.802,2.216-3.391,5.634-6.591,5.59c-2.256-0.031-4.125-2.422-4.747-4.467         c-0.072-0.242-0.108-0.465-0.146-0.69c-0.422-0.52-0.78-1.067-1.061-1.628c-0.188,0.751-0.148,1.655,0.15,2.639         c0.747,2.458,2.954,5.048,5.725,5.248c0.142,0.01,0.281,0.014,0.419,0.014c1.31,0,2.427-0.454,3.411-1.178         c-0.323,0.624-1.207,1.487-2.115,2.145c-0.539,0.363-1.114,0.608-1.739,0.681c-1.852,0.217-3.352-1.033-4.117-2.431         c-0.654-0.599-1.222-1.297-1.679-2.042c0,0.614,0.133,1.279,0.408,1.953c0.771,1.876,2.57,3.65,4.947,3.65         c0.187,0,0.375-0.011,0.569-0.034c0.602-0.071,1.156-0.261,1.674-0.531c-0.738,0.947-1.51,1.578-2.333,1.641         c-0.499,0.038-0.909-0.037-1.258-0.17c-1.018-0.242-1.896-0.729-2.616-1.353c0.013,0.035,0.019,0.072,0.031,0.106         c0.63,1.625,1.919,2.532,3.569,2.532c0.117,0,0.236-0.005,0.358-0.015c2.588-0.197,4.28-3.7,6.158-7.364         c2.396-4.679,4.144-6.906,5.051-7.875C28.41,37.193,28.281,36.757,28.308,36.329z" fill="#37474F"/></g></g><g id="XMLID_209_"><g id="XMLID_210_"><g id="XMLID_211_"><path d="M28.227,33.24c-0.056,0.022-0.113,0.046-0.187,0.081c-2.867,2.54-6.539,5.666-8.799,5.082          c-2.562-0.659-4.608-2.851-5.106-4.59c-0.109-0.388-0.173-0.883-0.025-1.327c-0.004-0.003-0.007-0.004-0.009-0.007          c-0.294-0.295-0.529-0.607-0.738-0.925c-0.456,0.681-0.574,1.566-0.288,2.563c0.575,2.01,2.835,4.57,5.893,5.357          c0.333,0.085,0.666,0.125,1.002,0.125c2.562,0,5.209-2.347,7.993-4.813c0.161-0.143,0.323-0.284,0.485-0.427          C28.243,34.032,28.168,33.625,28.227,33.24z" fill="#37474F"/></g></g></g><g id="XMLID_213_"><g id="XMLID_214_"><g id="XMLID_215_"><path d="M28.345,30.7c-4.364,3.575-10.296,2.62-12.677,0.221c-0.617-0.624-1.427-1.835-0.342-3.143          c-0.197-0.157-0.393-0.315-0.554-0.483c-0.091-0.094-0.162-0.193-0.242-0.29c-1.24,1.431-1.124,3.204,0.354,4.694          c1.473,1.483,4.028,2.497,6.838,2.497c2.296,0,4.758-0.688,6.938-2.337C28.407,31.538,28.303,31.112,28.345,30.7z" fill="#37474F"/></g></g></g><g id="XMLID_217_"><g id="XMLID_218_"><g id="XMLID_219_"><path d="M28.191,27.225c-3.832,1.781-9.891,0.55-11.828-1.461c-0.72-0.749-0.493-1.258-0.26-1.576          c0.189-0.26,0.44-0.485,0.716-0.695c-0.145-0.11-0.302-0.215-0.426-0.333c-0.142-0.137-0.268-0.281-0.382-0.428          c-0.303,0.245-0.582,0.506-0.8,0.804c-0.693,0.947-0.564,2.039,0.356,2.994c1.443,1.499,4.871,2.653,8.282,2.653          c1.603,0,3.203-0.256,4.59-0.851C28.228,28.012,28.144,27.61,28.191,27.225z" fill="#37474F"/></g></g></g><g id="XMLID_221_"><g id="XMLID_222_"><g id="XMLID_223_"><path d="M28.524,22.877c-1.698,1.354-8.731,0.483-10.601-1.311          c-0.555-0.533-0.406-0.913-0.164-1.245c0.295-0.402,0.676-0.738,1.11-1.026c-0.286-0.265-0.502-0.557-0.664-0.87          c-0.519,0.347-0.979,0.755-1.337,1.244c-0.66,0.901-0.554,1.883,0.291,2.694c1.456,1.398,5.11,2.261,8.111,2.261          c1.693,0,3.179-0.274,3.941-0.882c0.238-0.19,0.278-0.538,0.088-0.776S28.764,22.687,28.524,22.877z" fill="#37474F" id="XMLID_224_"/></g></g></g><g id="XMLID_225_"><g id="XMLID_226_"><g id="XMLID_227_"><path d="M28.726,18.917c-0.082,0.022-0.161,0.056-0.227,0.115c-0.89,0.333-7.07,0.019-8.258-1.48          c-0.105-0.133-0.323-0.408,0.153-1.012c0.394-0.499,0.894-0.923,1.446-1.282c-0.159-0.351-0.248-0.728-0.264-1.123          c-0.795,0.464-1.51,1.037-2.049,1.721c-0.668,0.846-0.589,1.536-0.404,1.966c0.7,1.627,4.05,2.167,5.985,2.343          c0.544,0.05,1.243,0.098,1.92,0.098c0.701,0,1.372-0.054,1.821-0.209C28.676,19.708,28.636,19.296,28.726,18.917z" fill="#37474F"/></g></g></g><g id="XMLID_229_"><g id="XMLID_230_"><g id="XMLID_231_"><path d="M29.205,15.084L29.205,15.084c-0.254-0.17-0.569-0.132-0.738,0.122          c-0.414,0.28-3.142,0.414-4.285-0.466c-0.398-0.307-0.495-0.674-0.315-1.192c0.197-0.565,1.003-1.357,2.108-1.71          c0.669-0.211,1.657-0.33,2.575,0.321c0.248,0.177,0.593,0.118,0.77-0.13c0.176-0.25,0.118-0.594-0.13-0.77          c-1.008-0.714-2.268-0.883-3.551-0.473c-1.311,0.418-2.469,1.404-2.814,2.398c-0.408,1.167,0.033,2.17,1.209,2.755          c0.789,0.393,1.931,0.587,2.961,0.587c0.71,0,1.363-0.094,1.813-0.277C28.784,15.824,28.916,15.393,29.205,15.084z" fill="#37474F"/></g></g></g></g><g id="XMLID_233_"><g id="XMLID_237_"><g id="XMLID_238_"><path d="M30.215,15.126c0.647,0,1.175,0.62,1.175,1.382c0,0.3-0.085,0.589-0.245,0.836         c-0.216,0.332-0.216,0.76,0,1.091c0.16,0.246,0.245,0.535,0.245,0.834c0,0.3-0.085,0.589-0.245,0.835         c-0.216,0.332-0.216,0.76,0,1.092c0.16,0.246,0.245,0.535,0.245,0.835c0,0.3-0.085,0.589-0.245,0.835         c-0.216,0.332-0.216,0.759,0,1.091c0.16,0.247,0.245,0.536,0.245,0.836c0,0.251-0.062,0.494-0.185,0.721         c-0.179,0.333-0.155,0.737,0.061,1.046c0.205,0.293,0.313,0.637,0.313,0.994c0,0.309-0.082,0.614-0.236,0.881         c-0.179,0.31-0.179,0.692,0.001,1.001c0.154,0.266,0.235,0.57,0.235,0.88c0,0.269-0.064,0.534-0.192,0.788         c-0.156,0.311-0.14,0.68,0.043,0.976c0.181,0.291,0.276,0.636,0.276,0.998c0,0.248-0.049,0.493-0.144,0.728         c-0.099,0.242-0.099,0.513,0,0.754c0.095,0.234,0.144,0.479,0.144,0.728c0,0.313-0.079,0.618-0.234,0.906         c-0.16,0.297-0.16,0.654,0.001,0.951c0.154,0.287,0.233,0.591,0.233,0.905c0,0.433,0,0.842-1.491,0.842         c-1.489,0-1.489-0.409-1.489-0.842c0-0.316,0.078-0.621,0.232-0.903c0.161-0.298,0.161-0.657,0-0.955         c-0.154-0.284-0.232-0.588-0.232-0.904c0-0.25,0.048-0.496,0.143-0.73c0.098-0.24,0.098-0.509,0-0.75         c-0.095-0.235-0.143-0.48-0.143-0.73c0-0.362,0.096-0.708,0.275-1c0.183-0.295,0.199-0.665,0.043-0.975         c-0.128-0.254-0.192-0.519-0.192-0.788c0-0.31,0.081-0.614,0.235-0.88c0.18-0.31,0.18-0.691,0.001-1.001         c-0.154-0.267-0.236-0.572-0.236-0.881c0-0.359,0.107-0.702,0.312-0.992c0.217-0.309,0.241-0.714,0.063-1.047         c-0.124-0.23-0.187-0.474-0.187-0.723c0-0.3,0.085-0.588,0.245-0.833c0.219-0.333,0.219-0.764,0-1.097         c-0.16-0.245-0.245-0.533-0.245-0.833c0-0.3,0.085-0.588,0.245-0.832c0.219-0.333,0.219-0.765,0-1.098         c-0.16-0.244-0.245-0.532-0.245-0.833c0-0.3,0.085-0.587,0.245-0.832c0.219-0.333,0.219-0.764,0-1.097         c-0.16-0.245-0.245-0.533-0.245-0.833C29.04,15.746,29.567,15.126,30.215,15.126L30.215,15.126z M30.215,14.126         c-1.201,0-2.175,1.067-2.175,2.382c0,0.516,0.153,0.991,0.409,1.381c-0.256,0.39-0.409,0.864-0.409,1.38         c0,0.517,0.153,0.992,0.409,1.381c-0.256,0.39-0.409,0.865-0.409,1.381s0.153,0.991,0.409,1.381         c-0.256,0.39-0.409,0.865-0.409,1.381c0,0.438,0.116,0.843,0.305,1.195c-0.307,0.437-0.493,0.976-0.493,1.566         c0,0.509,0.139,0.981,0.37,1.381c-0.231,0.4-0.37,0.871-0.37,1.381c0,0.45,0.113,0.868,0.299,1.237         c-0.269,0.435-0.425,0.96-0.425,1.525c0,0.394,0.079,0.766,0.216,1.104c-0.137,0.338-0.216,0.711-0.216,1.105         c0,0.506,0.133,0.974,0.354,1.381c-0.221,0.406-0.354,0.875-0.354,1.381c0,1.505,1.115,1.842,2.489,1.842         c1.376,0,2.491-0.337,2.491-1.842c0-0.506-0.135-0.976-0.354-1.381c0.22-0.407,0.354-0.875,0.354-1.381         c0-0.394-0.08-0.767-0.218-1.105c0.138-0.338,0.218-0.711,0.218-1.104c0-0.565-0.156-1.09-0.426-1.525         c0.186-0.369,0.299-0.787,0.299-1.237c0-0.51-0.139-0.981-0.37-1.381c0.231-0.4,0.37-0.872,0.37-1.381         c0-0.591-0.188-1.13-0.493-1.566c0.189-0.352,0.304-0.757,0.304-1.195c0-0.517-0.153-0.991-0.407-1.381         c0.254-0.39,0.407-0.865,0.407-1.381s-0.153-0.991-0.407-1.381c0.254-0.39,0.407-0.865,0.407-1.381         c0-0.516-0.153-0.991-0.407-1.38c0.254-0.39,0.407-0.865,0.407-1.381C32.39,15.193,31.417,14.126,30.215,14.126         L30.215,14.126z" fill="#37474F" id="XMLID_239_"/></g></g></g><g id="XMLID_242_"><g id="XMLID_245_"><path d="M30.215,51.622c-1.557,0-2.822-1.126-2.822-2.51c0-0.722,0.385-1.136,1.057-1.136        c0.21,0,0.466,0.041,0.752,0.091c0.619,0.108,1.41,0.108,2.027,0c0.287-0.05,0.543-0.091,0.753-0.091        c0.672,0,1.057,0.414,1.057,1.136C33.038,50.496,31.771,51.622,30.215,51.622z M28.427,48.962        c-0.022,0-0.034,0.049-0.034,0.15c0,0.833,0.817,1.51,1.822,1.51s1.823-0.677,1.823-1.51c0-0.131-0.021-0.175-0.021-0.175        c-0.198,0.039-0.395,0.077-0.616,0.116c-0.664,0.116-1.71,0.116-2.372,0c-0.222-0.039-0.418-0.077-0.58-0.077        C28.44,48.967,28.434,48.962,28.427,48.962z" fill="#37474F" id="XMLID_246_"/></g></g><g id="XMLID_249_"><g id="XMLID_252_"><path d="M30.215,47.713c-1.442,0-2.616-1.046-2.616-2.332c0-0.687,0.367-1.08,1.007-1.08        c0.193,0,0.429,0.038,0.693,0.084c0.559,0.098,1.273,0.098,1.832,0c0.265-0.046,0.5-0.084,0.694-0.084        c0.641,0,1.008,0.394,1.008,1.08C32.833,46.667,31.658,47.713,30.215,47.713z M28.603,45.301        c-0.002,0.021-0.004,0.047-0.004,0.08c0,0.734,0.725,1.332,1.616,1.332c0.893,0,1.618-0.598,1.618-1.332        c0-0.03-0.001-0.055-0.003-0.075c-0.187,0.002-0.348,0.033-0.526,0.064c-0.609,0.106-1.568,0.106-2.178,0        C28.926,45.335,28.755,45.296,28.603,45.301z" fill="#37474F" id="XMLID_253_"/></g></g><g id="XMLID_256_"><g id="XMLID_259_"><path d="M30.215,43.928c-1.442,0-2.616-1.046-2.616-2.332c0-0.686,0.367-1.08,1.007-1.08        c0.193,0,0.429,0.038,0.693,0.084c0.559,0.098,1.273,0.098,1.832,0c0.265-0.046,0.501-0.084,0.694-0.084        c0.641,0,1.008,0.394,1.008,1.08C32.833,42.881,31.658,43.928,30.215,43.928z M28.603,41.516        c-0.002,0.021-0.004,0.047-0.004,0.08c0,0.734,0.725,1.332,1.616,1.332c0.893,0,1.618-0.598,1.618-1.332        c0-0.03-0.001-0.055-0.003-0.075c-0.187,0.002-0.348,0.033-0.526,0.064c-0.607,0.106-1.57,0.106-2.178,0        C28.925,41.55,28.755,41.487,28.603,41.516z" fill="#37474F" id="XMLID_260_"/></g></g></g></g><g id="XMLID_263_"><g id="XMLID_264_"><rect fill="#37474F" height="1" id="XMLID_265_" width="3" x="7" y="16"/></g></g><g id="XMLID_266_"><g id="XMLID_267_"><rect fill="#37474F" height="1" id="XMLID_268_" width="5" x="7" y="13"/></g></g><g id="XMLID_269_"><g id="XMLID_270_"><rect fill="#37474F" height="1" id="XMLID_271_" width="6" x="27" y="55"/></g></g></g><g id="XMLID_159_"><path d="M6,57V7h48v35.349c0.348,0.202,0.68,0.424,1,0.665V6H5v52h36.864    c-0.307-0.313-0.587-0.649-0.851-1H6z" fill="#37474F" id="XMLID_278_"/><path d="M47.939,35.728c-0.261,0.488-0.568,0.978-0.954,1.451c-0.02,0.206-0.054,0.396-0.09,0.552    c-0.422,1.804-2.146,4.006-4.51,4.535c-3.017,0.67-5.836-1.933-8.555-4.455c-0.602-0.556-1.199-1.109-1.797-1.63    c0.014,0.184-0.006,0.368-0.05,0.546c0.081,0.311,0.076,0.646-0.022,0.95c0.943,1.048,2.628,3.276,4.896,7.704    c0.76,1.483,1.49,2.936,2.261,4.157c0.094-0.638,0.246-1.256,0.455-1.849c-0.383-0.382-0.694-0.761-0.858-1.078    c0.326,0.24,0.672,0.436,1.029,0.61c0.15-0.367,0.32-0.723,0.511-1.066c-2.144-1.033-3.773-3.395-4.379-5.071    c1.726,1.37,3.53,2.4,5.498,2.4c0.389,0,0.784-0.044,1.187-0.129c0.973-0.82,2.104-1.457,3.343-1.859    c1.056-1.036,1.788-2.322,2.067-3.512C48.164,37.156,48.144,36.389,47.939,35.728z" fill="#37474F"/></g><path d="M49,60c-4.962,0-9-4.038-9-9s4.038-9,9-9c2.066,0,4.085,0.718,5.683,2.021l-0.632,0.775   C52.631,43.638,50.837,43,49,43c-4.411,0-8,3.589-8,8s3.589,8,8,8s8-3.589,8-8c0-1.763-0.562-3.434-1.625-4.834l0.796-0.604   C57.368,47.136,58,49.017,58,51C58,55.962,53.962,60,49,60z" fill="#37474F"/><polygon fill="#37474F" points="49.006,54.775 44.308,49.302 45.067,48.65 48.994,53.225 58.241,42.108 59.009,42.748  "/></g></svg>